<mxfile host="app.diagrams.net" modified="2023-08-24T08:45:18.618Z" agent="Mozilla/5.0 (Windows NT 10.0; Win64; x64) AppleWebKit/537.36 (KHTML, like Gecko) Chrome/116.0.0.0 Safari/537.36" etag="xNKkS87CWaunfK14Dsbd" version="21.6.9" type="github">
  <diagram name="Page-1" id="cUsv9AFWHgyIEAeBlhUq">
    <mxGraphModel dx="1687" dy="929" grid="1" gridSize="10" guides="1" tooltips="1" connect="1" arrows="1" fold="1" page="1" pageScale="1" pageWidth="850" pageHeight="1100" background="none" math="0" shadow="0">
      <root>
        <mxCell id="0" />
        <mxCell id="1" parent="0" />
        <mxCell id="0kpnpTsTnSq4tK5dPo8a-8" value="&lt;font face=&quot;Lucida Console&quot; style=&quot;font-size: 16px;&quot;&gt;index.js&lt;/font&gt;" style="rounded=1;whiteSpace=wrap;html=1;fontSize=16;" vertex="1" parent="1">
          <mxGeometry x="40" y="20" width="120" height="60" as="geometry" />
        </mxCell>
        <mxCell id="0kpnpTsTnSq4tK5dPo8a-13" style="edgeStyle=orthogonalEdgeStyle;rounded=0;orthogonalLoop=1;jettySize=auto;html=1;entryX=0.5;entryY=0;entryDx=0;entryDy=0;" edge="1" parent="1" source="0kpnpTsTnSq4tK5dPo8a-9" target="0kpnpTsTnSq4tK5dPo8a-16">
          <mxGeometry relative="1" as="geometry">
            <mxPoint x="425" y="240" as="targetPoint" />
          </mxGeometry>
        </mxCell>
        <mxCell id="0kpnpTsTnSq4tK5dPo8a-9" value="App.tsx" style="rounded=1;whiteSpace=wrap;html=1;" vertex="1" parent="1">
          <mxGeometry x="365" y="90" width="120" height="70" as="geometry" />
        </mxCell>
        <mxCell id="0kpnpTsTnSq4tK5dPo8a-10" value="" style="curved=1;endArrow=classic;html=1;rounded=0;exitX=1;exitY=0.5;exitDx=0;exitDy=0;entryX=0.45;entryY=0;entryDx=0;entryDy=0;entryPerimeter=0;" edge="1" parent="1" source="0kpnpTsTnSq4tK5dPo8a-8" target="0kpnpTsTnSq4tK5dPo8a-9">
          <mxGeometry width="50" height="50" relative="1" as="geometry">
            <mxPoint x="650" y="290" as="sourcePoint" />
            <mxPoint x="700" y="240" as="targetPoint" />
            <Array as="points">
              <mxPoint x="330" y="40" />
            </Array>
          </mxGeometry>
        </mxCell>
        <mxCell id="0kpnpTsTnSq4tK5dPo8a-30" style="edgeStyle=orthogonalEdgeStyle;rounded=0;orthogonalLoop=1;jettySize=auto;html=1;exitX=0.5;exitY=1;exitDx=0;exitDy=0;entryX=0.5;entryY=0;entryDx=0;entryDy=0;" edge="1" parent="1" source="0kpnpTsTnSq4tK5dPo8a-14" target="0kpnpTsTnSq4tK5dPo8a-20">
          <mxGeometry relative="1" as="geometry" />
        </mxCell>
        <mxCell id="0kpnpTsTnSq4tK5dPo8a-14" value="&lt;br style=&quot;border-color: var(--border-color);&quot;&gt;&amp;lt;BrouserRouter/&amp;gt;" style="rounded=1;whiteSpace=wrap;html=1;verticalAlign=top;" vertex="1" parent="1">
          <mxGeometry x="325" y="200" width="200" height="140" as="geometry" />
        </mxCell>
        <mxCell id="0kpnpTsTnSq4tK5dPo8a-16" value="&amp;lt;MainContent/&amp;gt;" style="rounded=1;whiteSpace=wrap;html=1;" vertex="1" parent="1">
          <mxGeometry x="365" y="250" width="120" height="60" as="geometry" />
        </mxCell>
        <mxCell id="0kpnpTsTnSq4tK5dPo8a-17" value="&lt;font face=&quot;Lucida Console&quot; style=&quot;font-size: 16px;&quot;&gt;&amp;lt;Dialogs/&amp;gt;&lt;/font&gt;" style="rounded=1;whiteSpace=wrap;html=1;fontSize=16;" vertex="1" parent="1">
          <mxGeometry x="30" y="420" width="120" height="60" as="geometry" />
        </mxCell>
        <mxCell id="0kpnpTsTnSq4tK5dPo8a-18" value="" style="curved=1;endArrow=classic;html=1;rounded=0;entryX=0.442;entryY=0;entryDx=0;entryDy=0;entryPerimeter=0;exitX=0;exitY=0.25;exitDx=0;exitDy=0;" edge="1" parent="1" source="0kpnpTsTnSq4tK5dPo8a-14" target="0kpnpTsTnSq4tK5dPo8a-17">
          <mxGeometry width="50" height="50" relative="1" as="geometry">
            <mxPoint x="320" y="280" as="sourcePoint" />
            <mxPoint x="700" y="240" as="targetPoint" />
            <Array as="points">
              <mxPoint x="160" y="290" />
            </Array>
          </mxGeometry>
        </mxCell>
        <mxCell id="0kpnpTsTnSq4tK5dPo8a-19" value="&lt;font face=&quot;Lucida Console&quot; style=&quot;font-size: 16px;&quot;&gt;&amp;lt;Profile/&amp;gt;&lt;/font&gt;" style="rounded=1;whiteSpace=wrap;html=1;fontSize=16;" vertex="1" parent="1">
          <mxGeometry x="200" y="420" width="120" height="60" as="geometry" />
        </mxCell>
        <mxCell id="0kpnpTsTnSq4tK5dPo8a-20" value="&lt;font face=&quot;Lucida Console&quot; style=&quot;font-size: 16px;&quot;&gt;&amp;lt;NavBar/&amp;gt;&lt;/font&gt;" style="rounded=1;whiteSpace=wrap;html=1;fontSize=16;" vertex="1" parent="1">
          <mxGeometry x="365" y="420" width="120" height="60" as="geometry" />
        </mxCell>
        <mxCell id="0kpnpTsTnSq4tK5dPo8a-21" value="&lt;font face=&quot;Lucida Console&quot; style=&quot;font-size: 16px;&quot;&gt;&amp;lt;Header/&amp;gt;&lt;/font&gt;" style="rounded=1;whiteSpace=wrap;html=1;fontSize=16;" vertex="1" parent="1">
          <mxGeometry x="540" y="420" width="120" height="60" as="geometry" />
        </mxCell>
        <mxCell id="0kpnpTsTnSq4tK5dPo8a-22" value="&lt;font face=&quot;Lucida Console&quot; style=&quot;font-size: 16px;&quot;&gt;&amp;lt;footer/&amp;gt;&lt;/font&gt;" style="rounded=1;whiteSpace=wrap;html=1;fontSize=16;" vertex="1" parent="1">
          <mxGeometry x="700" y="420" width="120" height="60" as="geometry" />
        </mxCell>
        <mxCell id="0kpnpTsTnSq4tK5dPo8a-24" value="" style="curved=1;endArrow=classic;html=1;rounded=0;exitX=0;exitY=0.75;exitDx=0;exitDy=0;entryX=0.5;entryY=0;entryDx=0;entryDy=0;" edge="1" parent="1" source="0kpnpTsTnSq4tK5dPo8a-14" target="0kpnpTsTnSq4tK5dPo8a-19">
          <mxGeometry width="50" height="50" relative="1" as="geometry">
            <mxPoint x="335" y="330" as="sourcePoint" />
            <mxPoint x="93" y="430" as="targetPoint" />
            <Array as="points">
              <mxPoint x="260" y="360" />
            </Array>
          </mxGeometry>
        </mxCell>
        <mxCell id="0kpnpTsTnSq4tK5dPo8a-33" value="" style="curved=1;endArrow=classic;html=1;rounded=0;exitX=1;exitY=0.75;exitDx=0;exitDy=0;entryX=0.5;entryY=0;entryDx=0;entryDy=0;" edge="1" parent="1" source="0kpnpTsTnSq4tK5dPo8a-14" target="0kpnpTsTnSq4tK5dPo8a-21">
          <mxGeometry width="50" height="50" relative="1" as="geometry">
            <mxPoint x="640" y="400" as="sourcePoint" />
            <mxPoint x="700" y="440" as="targetPoint" />
            <Array as="points">
              <mxPoint x="590" y="360" />
            </Array>
          </mxGeometry>
        </mxCell>
        <mxCell id="0kpnpTsTnSq4tK5dPo8a-36" value="" style="curved=1;endArrow=classic;html=1;rounded=0;exitX=1;exitY=0.25;exitDx=0;exitDy=0;entryX=0.5;entryY=0;entryDx=0;entryDy=0;" edge="1" parent="1" source="0kpnpTsTnSq4tK5dPo8a-14" target="0kpnpTsTnSq4tK5dPo8a-22">
          <mxGeometry width="50" height="50" relative="1" as="geometry">
            <mxPoint x="690" y="355" as="sourcePoint" />
            <mxPoint x="765" y="420" as="targetPoint" />
            <Array as="points">
              <mxPoint x="700" y="290" />
            </Array>
          </mxGeometry>
        </mxCell>
        <mxCell id="0kpnpTsTnSq4tK5dPo8a-38" value="&lt;font face=&quot;Lucida Console&quot; style=&quot;font-size: 13px;&quot;&gt;&amp;lt;ProfileInfo/&amp;gt;&lt;/font&gt;" style="rounded=1;whiteSpace=wrap;html=1;fontSize=16;" vertex="1" parent="1">
          <mxGeometry x="130" y="530" width="120" height="60" as="geometry" />
        </mxCell>
        <mxCell id="0kpnpTsTnSq4tK5dPo8a-39" value="&lt;font face=&quot;Lucida Console&quot;&gt;&amp;lt;MyPosts/&amp;gt;&lt;/font&gt;" style="rounded=1;whiteSpace=wrap;html=1;fontSize=16;" vertex="1" parent="1">
          <mxGeometry x="270" y="530" width="120" height="60" as="geometry" />
        </mxCell>
        <mxCell id="0kpnpTsTnSq4tK5dPo8a-40" value="&amp;lt;Post/&amp;gt;" style="rounded=1;whiteSpace=wrap;html=1;fontSize=16;" vertex="1" parent="1">
          <mxGeometry x="350" y="620" width="120" height="60" as="geometry" />
        </mxCell>
        <mxCell id="0kpnpTsTnSq4tK5dPo8a-41" value="&amp;lt;Post/&amp;gt;" style="rounded=1;whiteSpace=wrap;html=1;fontSize=16;" vertex="1" parent="1">
          <mxGeometry x="360" y="630" width="120" height="60" as="geometry" />
        </mxCell>
        <mxCell id="0kpnpTsTnSq4tK5dPo8a-42" value="&amp;lt;Post/&amp;gt;" style="rounded=1;whiteSpace=wrap;html=1;fontSize=16;" vertex="1" parent="1">
          <mxGeometry x="370" y="640" width="120" height="60" as="geometry" />
        </mxCell>
        <mxCell id="0kpnpTsTnSq4tK5dPo8a-43" value="&amp;lt;Post/&amp;gt;" style="rounded=1;whiteSpace=wrap;html=1;fontSize=16;" vertex="1" parent="1">
          <mxGeometry x="380" y="650" width="120" height="60" as="geometry" />
        </mxCell>
        <mxCell id="0kpnpTsTnSq4tK5dPo8a-44" value="&amp;lt;Post/&amp;gt;" style="rounded=1;whiteSpace=wrap;html=1;fontSize=16;" vertex="1" parent="1">
          <mxGeometry x="390" y="660" width="120" height="60" as="geometry" />
        </mxCell>
        <mxCell id="0kpnpTsTnSq4tK5dPo8a-45" value="&amp;lt;Post/&amp;gt;" style="rounded=1;whiteSpace=wrap;html=1;fontSize=16;" vertex="1" parent="1">
          <mxGeometry x="400" y="670" width="120" height="60" as="geometry" />
        </mxCell>
        <mxCell id="0kpnpTsTnSq4tK5dPo8a-46" value="" style="curved=1;endArrow=classic;html=1;rounded=0;exitX=0.25;exitY=1;exitDx=0;exitDy=0;entryX=0.5;entryY=0;entryDx=0;entryDy=0;" edge="1" parent="1" source="0kpnpTsTnSq4tK5dPo8a-19" target="0kpnpTsTnSq4tK5dPo8a-38">
          <mxGeometry width="50" height="50" relative="1" as="geometry">
            <mxPoint x="510" y="560" as="sourcePoint" />
            <mxPoint x="560" y="510" as="targetPoint" />
            <Array as="points">
              <mxPoint x="190" y="500" />
            </Array>
          </mxGeometry>
        </mxCell>
        <mxCell id="0kpnpTsTnSq4tK5dPo8a-50" value="" style="curved=1;endArrow=classic;html=1;rounded=0;exitX=0.75;exitY=1;exitDx=0;exitDy=0;entryX=0.5;entryY=0;entryDx=0;entryDy=0;" edge="1" parent="1" source="0kpnpTsTnSq4tK5dPo8a-19" target="0kpnpTsTnSq4tK5dPo8a-39">
          <mxGeometry width="50" height="50" relative="1" as="geometry">
            <mxPoint x="240" y="490" as="sourcePoint" />
            <mxPoint x="200" y="540" as="targetPoint" />
            <Array as="points">
              <mxPoint x="320" y="490" />
            </Array>
          </mxGeometry>
        </mxCell>
        <mxCell id="0kpnpTsTnSq4tK5dPo8a-52" value="" style="curved=1;endArrow=classic;html=1;rounded=0;exitX=0.463;exitY=1.002;exitDx=0;exitDy=0;entryX=0.486;entryY=-0.078;entryDx=0;entryDy=0;entryPerimeter=0;exitPerimeter=0;" edge="1" parent="1" source="0kpnpTsTnSq4tK5dPo8a-39">
          <mxGeometry width="50" height="50" relative="1" as="geometry">
            <mxPoint x="325" y="594.68" as="sourcePoint" />
            <mxPoint x="403.31999999999994" y="619.9999999999999" as="targetPoint" />
            <Array as="points">
              <mxPoint x="340" y="610" />
              <mxPoint x="405" y="594.68" />
            </Array>
          </mxGeometry>
        </mxCell>
        <mxCell id="0kpnpTsTnSq4tK5dPo8a-53" value="&lt;font face=&quot;Lucida Console&quot; style=&quot;font-size: 13px;&quot;&gt;&amp;lt;DialogItem/&amp;gt;&lt;/font&gt;" style="rounded=1;whiteSpace=wrap;html=1;fontSize=16;" vertex="1" parent="1">
          <mxGeometry x="10" y="640" width="120" height="60" as="geometry" />
        </mxCell>
        <mxCell id="0kpnpTsTnSq4tK5dPo8a-54" value="&lt;font face=&quot;Lucida Console&quot;&gt;&amp;lt;Message/&amp;gt;&lt;/font&gt;" style="rounded=1;whiteSpace=wrap;html=1;fontSize=16;" vertex="1" parent="1">
          <mxGeometry x="150" y="640" width="120" height="60" as="geometry" />
        </mxCell>
        <mxCell id="0kpnpTsTnSq4tK5dPo8a-55" value="" style="curved=1;endArrow=classic;html=1;rounded=0;exitX=0.427;exitY=1.066;exitDx=0;exitDy=0;exitPerimeter=0;entryX=0.5;entryY=0;entryDx=0;entryDy=0;" edge="1" parent="1" source="0kpnpTsTnSq4tK5dPo8a-17" target="0kpnpTsTnSq4tK5dPo8a-53">
          <mxGeometry width="50" height="50" relative="1" as="geometry">
            <mxPoint x="380" y="440" as="sourcePoint" />
            <mxPoint x="430" y="390" as="targetPoint" />
            <Array as="points" />
          </mxGeometry>
        </mxCell>
        <mxCell id="0kpnpTsTnSq4tK5dPo8a-56" value="" style="curved=1;endArrow=classic;html=1;rounded=0;exitX=0.5;exitY=1;exitDx=0;exitDy=0;entryX=0.5;entryY=0;entryDx=0;entryDy=0;" edge="1" parent="1" source="0kpnpTsTnSq4tK5dPo8a-17" target="0kpnpTsTnSq4tK5dPo8a-54">
          <mxGeometry width="50" height="50" relative="1" as="geometry">
            <mxPoint x="91" y="494" as="sourcePoint" />
            <mxPoint x="80" y="650" as="targetPoint" />
            <Array as="points">
              <mxPoint x="80" y="620" />
              <mxPoint x="220" y="600" />
            </Array>
          </mxGeometry>
        </mxCell>
      </root>
    </mxGraphModel>
  </diagram>
</mxfile>
